<svg id="svg" version="1.1" width="400" height="400" viewBox="0 0 400 400" xmlns="http://www.w3.org/2000/svg" xmlns:xlink="http://www.w3.org/1999/xlink" ><g id="svgg"><path id="path0" d="" stroke="none" fill="#000000" fill-rule="evenodd"></path><path id="path1" d="" stroke="none" fill="#555500" fill-rule="evenodd"></path><path id="path2" d="" stroke="none" fill="#ff0000" fill-rule="evenodd"></path><path id="path3" d="M157.800 3.200 C 157.664 3.420,156.843 3.600,155.976 3.600 C 155.109 3.600,154.400 3.780,154.400 4.000 C 154.400 4.220,153.860 4.400,153.200 4.400 C 152.540 4.400,152.000 4.580,152.000 4.800 C 152.000 5.020,151.561 5.200,151.024 5.200 C 150.487 5.200,149.936 5.380,149.800 5.600 C 149.664 5.820,149.203 6.000,148.776 6.000 C 148.349 6.000,148.000 6.146,148.000 6.325 C 148.000 6.504,147.370 6.898,146.600 7.200 C 145.830 7.502,145.200 7.896,145.200 8.075 C 145.200 8.254,144.964 8.400,144.675 8.400 C 144.387 8.400,143.788 8.738,143.345 9.151 C 142.901 9.564,142.143 10.028,141.661 10.181 C 140.463 10.561,131.600 19.347,131.600 20.153 C 131.600 20.509,131.442 20.800,131.249 20.800 C 131.055 20.800,130.673 21.340,130.400 22.000 C 130.127 22.660,129.745 23.200,129.551 23.200 C 129.358 23.200,129.200 23.436,129.200 23.725 C 129.200 24.014,128.837 25.001,128.393 25.920 C 127.949 26.839,127.474 28.407,127.337 29.406 C 127.200 30.405,126.933 31.318,126.744 31.435 C 126.555 31.552,126.400 32.886,126.400 34.400 C 126.400 35.914,126.220 37.264,126.000 37.400 C 125.780 37.536,125.600 38.357,125.600 39.224 C 125.600 40.091,125.780 40.800,126.000 40.800 C 126.233 40.800,126.400 42.133,126.400 44.000 C 126.400 45.760,126.554 47.200,126.743 47.200 C 126.932 47.200,127.203 48.317,127.346 49.682 C 127.488 51.048,127.784 52.344,128.002 52.562 C 128.221 52.781,128.400 53.286,128.400 53.685 C 128.400 54.084,128.580 54.768,128.800 55.205 C 129.020 55.642,129.380 56.358,129.600 56.795 C 129.820 57.232,130.000 57.862,130.000 58.195 C 130.000 58.528,130.180 58.800,130.400 58.800 C 130.620 58.800,130.800 59.160,130.800 59.600 C 130.800 60.040,130.980 60.400,131.200 60.400 C 131.420 60.400,131.600 60.760,131.600 61.200 C 131.600 61.640,131.780 62.000,132.000 62.000 C 132.220 62.000,132.400 62.360,132.400 62.800 C 132.400 63.240,132.580 63.600,132.800 63.600 C 133.020 63.600,133.200 63.836,133.200 64.125 C 133.200 64.413,133.515 64.998,133.900 65.425 C 134.285 65.851,134.855 66.695,135.168 67.300 C 135.480 67.905,135.885 68.400,136.068 68.400 C 136.250 68.400,136.403 68.625,136.406 68.900 C 136.409 69.175,137.534 70.602,138.906 72.070 C 140.278 73.539,142.300 75.772,143.400 77.033 C 144.500 78.294,145.584 79.522,145.809 79.763 C 146.033 80.003,146.632 80.740,147.139 81.400 C 148.307 82.921,152.776 87.884,155.448 90.627 C 156.574 91.784,157.918 93.331,158.434 94.065 C 158.951 94.799,160.099 96.190,160.987 97.155 C 161.874 98.120,162.784 99.110,163.009 99.355 C 163.233 99.600,163.834 100.340,164.344 101.000 C 165.457 102.441,169.828 107.274,172.605 110.135 C 173.707 111.271,175.053 112.830,175.596 113.600 C 176.139 114.370,176.947 115.380,177.391 115.845 C 177.836 116.310,179.100 117.736,180.200 119.014 C 181.300 120.292,183.235 122.422,184.500 123.747 C 185.765 125.072,186.800 126.276,186.800 126.423 C 186.800 126.570,187.936 127.855,189.325 129.278 C 190.714 130.702,192.288 132.482,192.822 133.233 C 193.357 133.985,194.397 135.230,195.134 136.000 C 195.870 136.770,197.108 138.165,197.885 139.100 C 199.166 140.643,201.200 141.487,201.200 140.475 C 201.200 140.145,201.537 139.743,204.773 136.200 C 205.778 135.100,207.050 133.602,207.600 132.871 C 208.150 132.139,209.635 130.441,210.900 129.097 C 212.165 127.753,213.200 126.541,213.200 126.405 C 213.200 126.268,214.235 125.070,215.500 123.741 C 217.541 121.598,219.131 119.833,223.556 114.800 C 224.233 114.030,224.790 113.275,224.794 113.123 C 224.797 112.970,225.835 111.766,227.100 110.448 C 230.763 106.630,235.317 101.612,235.975 100.668 C 236.308 100.190,237.125 99.251,237.790 98.579 C 238.456 97.908,239.540 96.668,240.200 95.824 C 240.860 94.980,241.625 94.057,241.900 93.773 C 242.175 93.489,242.400 93.163,242.400 93.049 C 242.400 92.934,243.525 91.671,244.900 90.242 C 249.175 85.799,250.950 83.846,252.400 81.991 C 253.170 81.006,254.340 79.651,255.000 78.979 C 255.660 78.308,256.740 77.070,257.400 76.229 C 258.060 75.388,259.725 73.513,261.100 72.062 C 262.475 70.611,263.600 69.233,263.600 69.000 C 263.600 68.767,263.960 68.317,264.400 68.000 C 264.840 67.683,265.200 67.186,265.200 66.895 C 265.200 66.604,265.560 65.980,266.000 65.508 C 266.440 65.036,266.800 64.413,266.800 64.125 C 266.800 63.836,266.980 63.600,267.200 63.600 C 267.420 63.600,267.600 63.240,267.600 62.800 C 267.600 62.360,267.780 62.000,268.000 62.000 C 268.220 62.000,268.400 61.640,268.400 61.200 C 268.400 60.760,268.580 60.400,268.800 60.400 C 269.020 60.400,269.200 60.040,269.200 59.600 C 269.200 59.160,269.380 58.800,269.600 58.800 C 269.820 58.800,270.000 58.528,270.000 58.195 C 270.000 57.862,270.208 57.187,270.462 56.695 C 271.434 54.816,271.600 54.393,271.600 53.800 C 271.600 53.464,271.762 52.877,271.961 52.495 C 272.160 52.113,272.505 51.080,272.729 50.200 C 272.953 49.320,273.349 47.800,273.608 46.821 C 274.174 44.684,274.228 33.570,273.679 32.062 C 273.467 31.478,273.074 30.190,272.807 29.200 C 272.540 28.210,272.160 27.087,271.961 26.705 C 271.762 26.323,271.600 25.738,271.600 25.405 C 271.600 25.072,271.420 24.800,271.200 24.800 C 270.980 24.800,270.800 24.440,270.800 24.000 C 270.800 23.560,270.620 23.200,270.400 23.200 C 270.180 23.200,270.000 22.964,270.000 22.675 C 270.000 22.387,269.640 21.764,269.200 21.292 C 268.760 20.820,268.400 20.281,268.400 20.095 C 268.400 19.779,267.457 18.667,264.251 15.200 C 261.855 12.608,255.091 7.600,253.987 7.600 C 253.774 7.600,253.600 7.420,253.600 7.200 C 253.600 6.980,253.240 6.800,252.800 6.800 C 252.360 6.800,252.000 6.620,252.000 6.400 C 252.000 6.180,251.651 6.000,251.224 6.000 C 250.797 6.000,250.336 5.820,250.200 5.600 C 250.064 5.380,249.513 5.200,248.976 5.200 C 248.439 5.200,248.000 5.020,248.000 4.800 C 248.000 4.580,247.460 4.400,246.800 4.400 C 246.140 4.400,245.600 4.220,245.600 4.000 C 245.600 3.780,244.891 3.600,244.024 3.600 C 243.157 3.600,242.336 3.420,242.200 3.200 C 241.887 2.693,225.600 2.653,225.600 3.160 C 225.600 3.358,224.835 3.619,223.900 3.741 C 220.537 4.180,219.200 4.494,219.200 4.844 C 219.200 5.040,218.660 5.200,218.000 5.200 C 217.340 5.200,216.800 5.380,216.800 5.600 C 216.800 5.820,216.350 6.000,215.800 6.000 C 215.250 6.000,214.800 6.180,214.800 6.400 C 214.800 6.620,214.566 6.800,214.280 6.800 C 213.544 6.800,211.607 7.741,211.603 8.100 C 211.601 8.265,211.240 8.400,210.800 8.400 C 210.360 8.400,210.000 8.580,210.000 8.800 C 210.000 9.020,209.640 9.200,209.200 9.200 C 208.760 9.200,208.400 9.351,208.400 9.536 C 208.400 9.720,207.929 10.086,207.353 10.349 C 206.117 10.912,201.704 14.225,200.700 15.343 C 200.006 16.116,199.994 16.116,199.300 15.343 C 198.296 14.225,193.883 10.912,192.647 10.349 C 192.071 10.086,191.600 9.720,191.600 9.536 C 191.600 9.351,191.255 9.200,190.833 9.200 C 190.412 9.200,190.007 9.065,189.933 8.900 C 189.713 8.405,184.746 6.000,183.944 6.000 C 183.535 6.000,183.200 5.820,183.200 5.600 C 183.200 5.380,182.660 5.200,182.000 5.200 C 181.340 5.200,180.800 5.020,180.800 4.800 C 180.800 4.580,180.271 4.400,179.624 4.400 C 178.977 4.400,178.336 4.220,178.200 4.000 C 178.064 3.780,177.153 3.600,176.176 3.600 C 175.199 3.600,174.400 3.420,174.400 3.200 C 174.400 2.946,171.408 2.800,166.224 2.800 C 161.204 2.800,157.952 2.954,157.800 3.200 M122.800 141.600 C 122.800 141.846,120.808 142.000,117.624 142.000 C 114.604 142.000,112.344 142.167,112.200 142.400 C 112.064 142.620,110.793 142.800,109.376 142.800 C 107.925 142.800,106.800 142.975,106.800 143.200 C 106.800 143.420,105.925 143.600,104.855 143.600 C 102.573 143.600,98.545 144.358,94.200 145.606 C 93.320 145.859,92.060 146.164,91.400 146.283 C 90.740 146.403,90.020 146.625,89.800 146.778 C 89.580 146.931,88.590 147.289,87.600 147.574 C 86.610 147.858,85.395 148.251,84.900 148.446 C 82.872 149.244,81.763 149.712,81.105 150.047 C 80.723 150.241,80.048 150.400,79.605 150.400 C 79.162 150.400,78.800 150.580,78.800 150.800 C 78.800 151.020,78.440 151.200,78.000 151.200 C 77.560 151.200,77.200 151.380,77.200 151.600 C 77.200 151.820,76.761 152.000,76.224 152.000 C 75.687 152.000,75.136 152.180,75.000 152.400 C 74.864 152.620,74.403 152.800,73.976 152.800 C 73.549 152.800,73.200 152.980,73.200 153.200 C 73.200 153.420,72.840 153.600,72.400 153.600 C 71.960 153.600,71.600 153.780,71.600 154.000 C 71.600 154.220,71.240 154.400,70.800 154.400 C 70.360 154.400,70.000 154.580,70.000 154.800 C 70.000 155.020,69.640 155.200,69.200 155.200 C 68.760 155.200,68.400 155.346,68.400 155.525 C 68.400 155.704,67.770 156.098,67.000 156.400 C 66.230 156.702,65.600 157.062,65.600 157.200 C 65.600 157.338,64.970 157.698,64.200 158.000 C 63.430 158.302,62.800 158.696,62.800 158.875 C 62.800 159.054,62.530 159.200,62.200 159.200 C 61.870 159.200,61.600 159.380,61.600 159.600 C 61.600 159.820,61.375 160.001,61.100 160.003 C 60.669 160.005,55.749 162.950,54.600 163.893 C 54.380 164.074,53.570 164.658,52.800 165.192 C 52.030 165.725,51.310 166.269,51.200 166.400 C 51.090 166.531,50.370 167.071,49.600 167.600 C 48.830 168.129,47.909 168.886,47.553 169.281 C 47.197 169.676,46.774 170.000,46.613 170.000 C 46.452 170.000,45.439 170.900,44.362 172.000 C 43.285 173.100,42.244 174.000,42.048 174.000 C 41.602 174.000,33.637 181.881,31.122 184.811 C 30.089 186.015,28.874 187.433,28.422 187.961 C 27.970 188.490,27.600 189.069,27.600 189.248 C 27.600 189.427,26.970 190.203,26.200 190.973 C 25.430 191.743,24.800 192.568,24.800 192.805 C 24.800 193.042,24.363 193.673,23.829 194.207 C 23.295 194.741,22.536 195.723,22.143 196.389 C 21.749 197.055,21.286 197.600,21.114 197.600 C 20.941 197.600,20.800 197.870,20.800 198.200 C 20.800 198.530,20.620 198.800,20.400 198.800 C 20.180 198.800,20.000 199.036,20.000 199.325 C 20.000 199.613,19.640 200.236,19.200 200.708 C 18.760 201.180,18.400 201.762,18.400 202.000 C 18.400 202.238,18.040 202.820,17.600 203.292 C 17.160 203.764,16.800 204.387,16.800 204.675 C 16.800 204.964,16.620 205.200,16.400 205.200 C 16.180 205.200,16.000 205.560,16.000 206.000 C 16.000 206.440,15.865 206.801,15.700 206.803 C 15.535 206.805,15.203 207.210,14.962 207.703 C 14.721 208.196,13.887 209.860,13.107 211.400 C 11.015 215.533,10.000 217.878,10.000 218.578 C 10.000 218.920,9.820 219.200,9.600 219.200 C 9.380 219.200,9.200 219.549,9.200 219.976 C 9.200 220.403,9.020 220.864,8.800 221.000 C 8.580 221.136,8.400 221.687,8.400 222.224 C 8.400 222.761,8.220 223.200,8.000 223.200 C 7.780 223.200,7.600 223.562,7.600 224.005 C 7.600 224.783,7.458 225.169,6.462 227.095 C 6.208 227.587,6.000 228.352,6.000 228.795 C 6.000 229.238,5.820 229.600,5.600 229.600 C 5.380 229.600,5.200 230.129,5.200 230.776 C 5.200 231.423,5.020 232.064,4.800 232.200 C 4.580 232.336,4.400 232.966,4.400 233.600 C 4.400 234.234,4.220 234.864,4.000 235.000 C 3.780 235.136,3.600 235.867,3.600 236.624 C 3.600 237.381,3.420 238.000,3.200 238.000 C 2.980 238.000,2.800 238.720,2.800 239.600 C 2.800 240.480,2.620 241.200,2.400 241.200 C 2.180 241.200,2.000 242.100,2.000 243.200 C 2.000 244.300,1.820 245.200,1.600 245.200 C 1.380 245.200,1.200 246.064,1.200 247.120 C 1.200 248.176,0.975 249.265,0.700 249.540 C -0.027 250.267,-0.027 288.533,0.700 289.260 C 0.975 289.535,1.200 290.588,1.200 291.600 C 1.200 292.612,1.362 293.611,1.559 293.820 C 1.756 294.029,2.026 294.965,2.159 295.900 C 2.754 300.099,2.906 300.818,3.242 301.026 C 3.439 301.148,3.600 301.766,3.600 302.400 C 3.600 303.034,3.780 303.664,4.000 303.800 C 4.220 303.936,4.400 304.566,4.400 305.200 C 4.400 305.834,4.580 306.464,4.800 306.600 C 5.020 306.736,5.200 307.276,5.200 307.800 C 5.200 308.324,5.380 308.864,5.600 309.000 C 5.820 309.136,6.000 309.687,6.000 310.224 C 6.000 310.761,6.180 311.200,6.400 311.200 C 6.620 311.200,6.800 311.740,6.800 312.400 C 6.800 313.060,6.980 313.600,7.200 313.600 C 7.420 313.600,7.600 314.039,7.600 314.576 C 7.600 315.113,7.780 315.664,8.000 315.800 C 8.220 315.936,8.400 316.397,8.400 316.824 C 8.400 317.251,8.580 317.600,8.800 317.600 C 9.020 317.600,9.200 317.962,9.200 318.405 C 9.200 318.848,9.371 319.523,9.581 319.905 C 9.790 320.287,10.222 321.230,10.540 322.000 C 10.859 322.770,11.361 323.985,11.657 324.700 C 11.953 325.415,12.331 326.000,12.498 326.000 C 12.664 326.000,12.800 326.360,12.800 326.800 C 12.800 327.240,12.980 327.600,13.200 327.600 C 13.420 327.600,13.600 327.960,13.600 328.400 C 13.600 328.840,13.780 329.200,14.000 329.200 C 14.220 329.200,14.400 329.560,14.400 330.000 C 14.400 330.440,14.535 330.801,14.700 330.803 C 14.865 330.805,15.187 331.210,15.417 331.703 C 16.315 333.637,17.834 336.233,18.500 336.973 C 18.885 337.401,19.200 337.987,19.200 338.275 C 19.200 338.564,19.380 338.800,19.600 338.800 C 19.820 338.800,20.000 339.070,20.000 339.400 C 20.000 339.730,20.180 340.000,20.400 340.000 C 20.620 340.000,20.800 340.270,20.800 340.600 C 20.800 340.930,20.980 341.200,21.200 341.200 C 21.420 341.200,21.600 341.430,21.600 341.712 C 21.600 341.993,21.960 342.483,22.400 342.800 C 22.840 343.117,23.200 343.580,23.200 343.829 C 23.200 344.078,23.740 344.846,24.400 345.537 C 25.060 346.228,25.600 346.940,25.600 347.121 C 25.600 347.301,25.915 347.799,26.300 348.226 C 26.685 348.654,28.013 350.263,29.252 351.802 C 32.131 355.380,41.658 364.869,46.119 368.603 C 47.685 369.913,49.191 371.099,50.180 371.800 C 50.800 372.240,52.095 373.185,53.058 373.900 C 54.020 374.615,55.036 375.200,55.315 375.200 C 55.595 375.200,56.083 375.560,56.400 376.000 C 56.717 376.440,57.231 376.800,57.541 376.800 C 57.852 376.800,58.397 377.129,58.753 377.530 C 59.109 377.932,59.985 378.516,60.700 378.828 C 61.415 379.140,62.000 379.531,62.000 379.698 C 62.000 379.864,62.270 380.000,62.600 380.000 C 62.930 380.000,63.200 380.146,63.200 380.325 C 63.200 380.504,63.830 380.898,64.600 381.200 C 65.370 381.502,66.000 381.896,66.000 382.075 C 66.000 382.254,66.360 382.400,66.800 382.400 C 67.240 382.400,67.600 382.580,67.600 382.800 C 67.600 383.020,67.960 383.200,68.400 383.200 C 68.840 383.200,69.201 383.335,69.203 383.500 C 69.207 383.859,71.144 384.800,71.880 384.800 C 72.166 384.800,72.400 384.980,72.400 385.200 C 72.400 385.420,72.760 385.600,73.200 385.600 C 73.640 385.600,74.000 385.780,74.000 386.000 C 74.000 386.220,74.360 386.400,74.800 386.400 C 75.240 386.400,75.600 386.580,75.600 386.800 C 75.600 387.020,75.872 387.200,76.205 387.200 C 76.538 387.200,77.123 387.359,77.505 387.553 C 78.133 387.873,79.014 388.253,81.400 389.237 C 83.604 390.145,88.534 391.600,89.408 391.600 C 89.954 391.600,90.400 391.780,90.400 392.000 C 90.400 392.220,90.940 392.400,91.600 392.400 C 92.260 392.400,92.800 392.580,92.800 392.800 C 92.800 393.020,93.520 393.200,94.400 393.200 C 95.280 393.200,96.000 393.380,96.000 393.600 C 96.000 393.820,96.720 394.000,97.600 394.000 C 98.480 394.000,99.200 394.180,99.200 394.400 C 99.200 394.620,99.999 394.800,100.976 394.800 C 101.953 394.800,102.864 394.980,103.000 395.200 C 103.136 395.420,104.227 395.600,105.424 395.600 C 106.621 395.600,107.600 395.780,107.600 396.000 C 107.600 396.228,108.792 396.400,110.376 396.400 C 111.903 396.400,113.264 396.580,113.400 396.800 C 113.739 397.349,141.600 397.349,141.600 396.800 C 141.600 396.572,142.792 396.400,144.376 396.400 C 145.903 396.400,147.264 396.220,147.400 396.000 C 147.536 395.780,148.526 395.600,149.600 395.600 C 150.674 395.600,151.664 395.420,151.800 395.200 C 151.936 394.980,152.847 394.800,153.824 394.800 C 154.801 394.800,155.600 394.620,155.600 394.400 C 155.600 394.180,156.320 394.000,157.200 394.000 C 158.080 394.000,158.800 393.820,158.800 393.600 C 158.800 393.380,159.520 393.200,160.400 393.200 C 161.280 393.200,162.000 393.020,162.000 392.800 C 162.000 392.580,162.540 392.400,163.200 392.400 C 163.860 392.400,164.400 392.220,164.400 392.000 C 164.400 391.780,164.895 391.599,165.500 391.597 C 166.589 391.595,172.968 389.566,173.472 389.062 C 173.616 388.918,174.063 388.800,174.467 388.800 C 174.870 388.800,175.200 388.620,175.200 388.400 C 175.200 388.180,175.639 388.000,176.176 388.000 C 176.713 388.000,177.264 387.820,177.400 387.600 C 177.536 387.380,177.997 387.200,178.424 387.200 C 178.851 387.200,179.200 387.020,179.200 386.800 C 179.200 386.580,179.560 386.400,180.000 386.400 C 180.440 386.400,180.800 386.220,180.800 386.000 C 180.800 385.780,181.041 385.600,181.336 385.600 C 182.011 385.600,190.911 381.091,191.600 380.399 C 191.710 380.289,192.295 379.944,192.900 379.632 C 193.505 379.320,194.000 378.915,194.000 378.732 C 194.000 378.550,194.320 378.400,194.712 378.400 C 195.103 378.400,195.683 378.040,196.000 377.600 C 196.317 377.160,196.897 376.800,197.288 376.800 C 197.680 376.800,198.000 376.664,198.000 376.498 C 198.000 375.925,200.540 375.020,200.711 375.532 C 200.796 375.789,201.122 376.000,201.433 376.000 C 201.745 376.000,202.000 376.180,202.000 376.400 C 202.000 376.620,202.320 376.800,202.712 376.800 C 203.103 376.800,203.683 377.160,204.000 377.600 C 204.317 378.040,204.814 378.400,205.105 378.400 C 205.396 378.400,206.020 378.760,206.492 379.200 C 206.964 379.640,207.587 380.000,207.875 380.000 C 208.164 380.000,208.400 380.180,208.400 380.400 C 208.400 380.620,208.760 380.800,209.200 380.800 C 209.640 380.800,210.000 380.980,210.000 381.200 C 210.000 381.420,210.255 381.600,210.567 381.600 C 210.878 381.600,211.193 381.737,211.267 381.904 C 211.446 382.312,218.067 385.607,218.700 385.603 C 218.975 385.601,219.200 385.780,219.200 386.000 C 219.200 386.220,219.560 386.400,220.000 386.400 C 220.440 386.400,220.800 386.580,220.800 386.800 C 220.800 387.020,221.072 387.200,221.405 387.200 C 221.738 387.200,222.323 387.359,222.705 387.553 C 223.087 387.748,223.850 388.084,224.400 388.300 C 224.950 388.516,225.850 388.884,226.400 389.118 C 229.053 390.246,233.455 391.600,234.468 391.600 C 235.091 391.600,235.600 391.780,235.600 392.000 C 235.600 392.220,236.140 392.400,236.800 392.400 C 237.460 392.400,238.000 392.580,238.000 392.800 C 238.000 393.020,238.720 393.200,239.600 393.200 C 240.480 393.200,241.200 393.380,241.200 393.600 C 241.200 393.820,241.920 394.000,242.800 394.000 C 243.680 394.000,244.400 394.180,244.400 394.400 C 244.400 394.620,245.199 394.800,246.176 394.800 C 247.153 394.800,248.064 394.980,248.200 395.200 C 248.336 395.420,249.326 395.600,250.400 395.600 C 251.474 395.600,252.464 395.780,252.600 396.000 C 252.736 396.220,254.097 396.400,255.624 396.400 C 257.208 396.400,258.400 396.572,258.400 396.800 C 258.400 397.349,286.261 397.349,286.600 396.800 C 286.736 396.580,288.097 396.400,289.624 396.400 C 291.208 396.400,292.400 396.228,292.400 396.000 C 292.400 395.780,293.379 395.600,294.576 395.600 C 295.773 395.600,296.864 395.420,297.000 395.200 C 297.136 394.980,298.047 394.800,299.024 394.800 C 300.001 394.800,300.800 394.620,300.800 394.400 C 300.800 394.180,301.520 394.000,302.400 394.000 C 303.280 394.000,304.000 393.820,304.000 393.600 C 304.000 393.380,304.619 393.200,305.376 393.200 C 306.133 393.200,306.864 393.020,307.000 392.800 C 307.136 392.580,307.777 392.400,308.424 392.400 C 309.071 392.400,309.600 392.220,309.600 392.000 C 309.600 391.780,310.046 391.600,310.592 391.600 C 311.503 391.600,316.574 390.089,318.700 389.183 C 319.195 388.972,320.095 388.599,320.700 388.353 C 321.305 388.108,322.113 387.748,322.495 387.553 C 322.877 387.359,323.462 387.200,323.795 387.200 C 324.128 387.200,324.400 387.020,324.400 386.800 C 324.400 386.580,324.760 386.400,325.200 386.400 C 325.640 386.400,326.000 386.220,326.000 386.000 C 326.000 385.780,326.360 385.600,326.800 385.600 C 327.240 385.600,327.600 385.420,327.600 385.200 C 327.600 384.980,327.834 384.800,328.120 384.800 C 328.856 384.800,330.793 383.859,330.797 383.500 C 330.799 383.335,331.160 383.200,331.600 383.200 C 332.040 383.200,332.400 383.020,332.400 382.800 C 332.400 382.580,332.760 382.400,333.200 382.400 C 333.640 382.400,334.000 382.254,334.000 382.075 C 334.000 381.896,334.630 381.502,335.400 381.200 C 336.170 380.898,336.800 380.504,336.800 380.325 C 336.800 380.146,337.070 380.000,337.400 380.000 C 337.730 380.000,338.000 379.820,338.000 379.600 C 338.000 379.380,338.360 379.200,338.800 379.200 C 339.240 379.200,339.600 379.020,339.600 378.800 C 339.600 378.580,339.830 378.400,340.112 378.400 C 340.393 378.400,340.883 378.040,341.200 377.600 C 341.517 377.160,342.057 376.800,342.400 376.800 C 342.743 376.800,343.283 376.440,343.600 376.000 C 343.917 375.560,344.418 375.200,344.712 375.200 C 345.007 375.200,346.029 374.615,346.984 373.900 C 347.938 373.185,349.221 372.240,349.834 371.800 C 350.447 371.360,351.498 370.550,352.169 370.000 C 352.840 369.450,353.731 368.730,354.149 368.400 C 356.848 366.271,369.237 354.035,370.756 352.000 C 371.330 351.231,372.111 350.256,372.492 349.834 C 372.872 349.412,373.682 348.332,374.292 347.434 C 374.901 346.535,375.715 345.451,376.100 345.025 C 376.485 344.598,376.800 344.053,376.800 343.813 C 376.800 343.573,377.160 343.117,377.600 342.800 C 378.040 342.483,378.400 341.993,378.400 341.712 C 378.400 341.430,378.580 341.200,378.800 341.200 C 379.020 341.200,379.200 340.930,379.200 340.600 C 379.200 340.270,379.380 340.000,379.600 340.000 C 379.820 340.000,380.000 339.730,380.000 339.400 C 380.000 339.070,380.180 338.800,380.400 338.800 C 380.620 338.800,380.800 338.564,380.800 338.275 C 380.800 337.987,381.160 337.364,381.600 336.892 C 382.040 336.420,382.400 335.771,382.400 335.450 C 382.400 335.129,382.535 334.807,382.700 334.733 C 383.076 334.566,384.375 332.436,384.671 331.500 C 384.793 331.115,385.052 330.800,385.247 330.800 C 385.441 330.800,385.600 330.440,385.600 330.000 C 385.600 329.560,385.780 329.200,386.000 329.200 C 386.220 329.200,386.400 328.840,386.400 328.400 C 386.400 327.960,386.580 327.600,386.800 327.600 C 387.020 327.600,387.200 327.240,387.200 326.800 C 387.200 326.360,387.335 325.999,387.500 325.997 C 387.859 325.993,388.800 324.056,388.800 323.320 C 388.800 323.034,388.980 322.800,389.200 322.800 C 389.420 322.800,389.600 322.564,389.600 322.275 C 389.600 321.986,389.965 320.995,390.410 320.073 C 390.856 319.150,391.329 317.853,391.462 317.189 C 391.595 316.526,391.860 315.886,392.052 315.768 C 392.243 315.650,392.400 315.113,392.400 314.576 C 392.400 314.039,392.580 313.600,392.800 313.600 C 393.020 313.600,393.200 313.060,393.200 312.400 C 393.200 311.740,393.380 311.200,393.600 311.200 C 393.820 311.200,394.000 310.660,394.000 310.000 C 394.000 309.340,394.180 308.800,394.400 308.800 C 394.620 308.800,394.800 308.260,394.800 307.600 C 394.800 306.940,394.980 306.400,395.200 306.400 C 395.420 306.400,395.600 305.860,395.600 305.200 C 395.600 304.540,395.780 304.000,396.000 304.000 C 396.220 304.000,396.400 303.381,396.400 302.624 C 396.400 301.867,396.580 301.136,396.800 301.000 C 397.020 300.864,397.200 300.054,397.200 299.200 C 397.200 298.346,397.380 297.536,397.600 297.400 C 397.820 297.264,398.000 296.454,398.000 295.600 C 398.000 294.746,398.180 293.936,398.400 293.800 C 398.620 293.664,398.800 292.699,398.800 291.656 C 398.800 290.613,399.025 289.535,399.300 289.260 C 399.686 288.874,399.800 284.355,399.800 269.400 C 399.800 254.445,399.686 249.926,399.300 249.540 C 399.025 249.265,398.800 248.176,398.800 247.120 C 398.800 246.064,398.620 245.200,398.400 245.200 C 398.180 245.200,398.000 244.300,398.000 243.200 C 398.000 242.100,397.820 241.200,397.600 241.200 C 397.380 241.200,397.200 240.480,397.200 239.600 C 397.200 238.720,397.020 238.000,396.800 238.000 C 396.580 238.000,396.400 237.381,396.400 236.624 C 396.400 235.867,396.220 235.136,396.000 235.000 C 395.780 234.864,395.600 234.223,395.600 233.576 C 395.600 232.929,395.420 232.400,395.200 232.400 C 394.980 232.400,394.800 231.871,394.800 231.224 C 394.800 230.577,394.620 229.936,394.400 229.800 C 394.180 229.664,394.000 229.201,394.000 228.771 C 394.000 228.341,393.820 227.632,393.600 227.195 C 393.380 226.758,393.020 226.042,392.800 225.605 C 392.580 225.168,392.400 224.448,392.400 224.005 C 392.400 223.562,392.244 223.200,392.052 223.200 C 391.861 223.200,391.609 222.615,391.493 221.900 C 391.167 219.899,385.730 208.400,385.110 208.400 C 384.940 208.400,384.800 208.040,384.800 207.600 C 384.800 207.160,384.620 206.800,384.400 206.800 C 384.180 206.800,384.000 206.440,384.000 206.000 C 384.000 205.560,383.820 205.200,383.600 205.200 C 383.380 205.200,383.200 204.964,383.200 204.675 C 383.200 204.387,382.840 203.764,382.400 203.292 C 381.960 202.820,381.600 202.156,381.600 201.817 C 381.600 201.478,381.450 201.200,381.268 201.200 C 381.085 201.200,380.680 200.705,380.368 200.100 C 380.056 199.495,379.699 198.910,379.574 198.800 C 379.449 198.690,378.740 197.700,377.999 196.600 C 377.257 195.500,376.324 194.309,375.925 193.953 C 375.526 193.597,375.200 193.104,375.200 192.856 C 375.200 192.460,374.281 191.218,372.974 189.847 C 372.740 189.601,372.358 189.058,372.125 188.640 C 371.171 186.929,361.068 176.490,356.794 172.800 C 355.647 171.810,354.472 170.775,354.183 170.500 C 353.894 170.225,353.530 170.000,353.375 170.000 C 353.221 170.000,352.803 169.676,352.447 169.281 C 352.091 168.886,351.170 168.129,350.400 167.600 C 349.630 167.071,348.709 166.314,348.353 165.919 C 347.997 165.524,347.547 165.198,347.353 165.195 C 347.159 165.192,346.550 164.825,346.000 164.381 C 344.604 163.252,339.624 160.095,338.300 159.500 C 337.695 159.227,337.200 158.869,337.200 158.702 C 337.200 158.536,336.922 158.400,336.583 158.400 C 336.244 158.400,335.580 158.040,335.108 157.600 C 334.636 157.160,334.013 156.800,333.725 156.800 C 333.436 156.800,333.200 156.620,333.200 156.400 C 333.200 156.180,332.840 156.000,332.400 156.000 C 331.960 156.000,331.600 155.820,331.600 155.600 C 331.600 155.380,331.240 155.200,330.800 155.200 C 330.360 155.200,330.000 155.020,330.000 154.800 C 330.000 154.580,329.640 154.400,329.200 154.400 C 328.760 154.400,328.400 154.220,328.400 154.000 C 328.400 153.780,328.040 153.600,327.600 153.600 C 327.160 153.600,326.800 153.420,326.800 153.200 C 326.800 152.980,326.528 152.800,326.195 152.800 C 325.607 152.800,325.182 152.633,323.305 151.662 C 322.813 151.408,322.138 151.200,321.805 151.200 C 321.472 151.200,321.200 151.020,321.200 150.800 C 321.200 150.580,320.851 150.400,320.424 150.400 C 319.997 150.400,319.558 150.256,319.449 150.079 C 319.340 149.903,318.328 149.507,317.200 149.200 C 316.072 148.893,315.060 148.497,314.951 148.321 C 314.842 148.144,314.324 148.000,313.800 148.000 C 313.276 148.000,312.736 147.820,312.600 147.600 C 312.464 147.380,311.924 147.200,311.400 147.200 C 310.876 147.200,310.348 147.040,310.227 146.844 C 310.106 146.649,309.421 146.395,308.704 146.281 C 307.987 146.168,306.680 145.866,305.800 145.611 C 301.676 144.415,297.447 143.600,295.369 143.600 C 294.422 143.600,293.536 143.420,293.400 143.200 C 293.264 142.980,292.004 142.800,290.600 142.800 C 289.196 142.800,287.936 142.620,287.800 142.400 C 287.657 142.168,285.470 142.000,282.600 142.000 C 279.730 142.000,277.543 141.832,277.400 141.600 C 277.258 141.371,275.196 141.200,272.576 141.200 C 269.792 141.200,268.000 141.357,268.000 141.600 C 268.000 141.846,266.008 142.000,262.824 142.000 C 259.804 142.000,257.544 142.167,257.400 142.400 C 257.264 142.620,255.903 142.800,254.376 142.800 C 252.792 142.800,251.600 142.972,251.600 143.200 C 251.600 143.420,250.667 143.600,249.526 143.600 C 247.203 143.600,240.886 144.948,238.081 146.042 C 237.576 146.239,236.731 146.400,236.205 146.400 C 235.678 146.400,235.136 146.580,235.000 146.800 C 234.864 147.020,234.324 147.200,233.800 147.200 C 233.276 147.200,232.736 147.380,232.600 147.600 C 232.464 147.820,231.924 148.000,231.400 148.000 C 230.876 148.000,230.336 148.180,230.200 148.400 C 230.064 148.620,229.513 148.800,228.976 148.800 C 228.439 148.800,228.000 148.947,228.000 149.128 C 228.000 149.308,227.100 149.700,226.000 150.000 C 224.900 150.300,224.000 150.692,224.000 150.872 C 224.000 151.053,223.728 151.200,223.395 151.200 C 223.062 151.200,222.387 151.408,221.895 151.662 C 220.018 152.633,219.593 152.800,219.005 152.800 C 218.672 152.800,218.400 152.980,218.400 153.200 C 218.400 153.420,218.040 153.600,217.600 153.600 C 217.160 153.600,216.800 153.780,216.800 154.000 C 216.800 154.220,216.440 154.400,216.000 154.400 C 215.560 154.400,215.200 154.546,215.200 154.725 C 215.200 154.904,214.570 155.298,213.800 155.600 C 213.030 155.902,212.400 156.296,212.400 156.475 C 212.400 156.654,212.040 156.800,211.600 156.800 C 211.160 156.800,210.800 156.980,210.800 157.200 C 210.800 157.420,210.564 157.600,210.275 157.600 C 209.987 157.600,209.364 157.960,208.892 158.400 C 208.420 158.840,207.756 159.200,207.417 159.200 C 207.078 159.200,206.800 159.380,206.800 159.600 C 206.800 159.820,206.528 160.000,206.196 160.000 C 205.864 160.000,204.731 160.585,203.678 161.300 C 200.323 163.579,200.103 163.666,199.118 163.103 C 198.633 162.827,197.375 162.015,196.322 161.300 C 195.269 160.585,194.136 160.000,193.804 160.000 C 193.472 160.000,193.200 159.820,193.200 159.600 C 193.200 159.380,192.964 159.200,192.675 159.200 C 192.387 159.200,191.802 158.885,191.375 158.499 C 190.949 158.114,189.700 157.349,188.600 156.799 C 187.500 156.250,186.540 155.665,186.467 155.500 C 186.393 155.335,185.988 155.200,185.567 155.200 C 185.145 155.200,184.800 155.020,184.800 154.800 C 184.800 154.580,184.440 154.400,184.000 154.400 C 183.560 154.400,183.200 154.220,183.200 154.000 C 183.200 153.780,182.840 153.600,182.400 153.600 C 181.960 153.600,181.600 153.420,181.600 153.200 C 181.600 152.980,181.328 152.800,180.995 152.800 C 180.662 152.800,179.987 152.592,179.495 152.338 C 177.618 151.367,177.193 151.200,176.605 151.200 C 176.272 151.200,176.000 151.020,176.000 150.800 C 176.000 150.580,175.561 150.400,175.024 150.400 C 174.487 150.400,173.936 150.220,173.800 150.000 C 173.664 149.780,173.203 149.600,172.776 149.600 C 172.349 149.600,172.000 149.420,172.000 149.200 C 172.000 148.980,171.561 148.800,171.024 148.800 C 170.487 148.800,169.936 148.620,169.800 148.400 C 169.664 148.180,169.124 148.000,168.600 148.000 C 168.076 148.000,167.536 147.820,167.400 147.600 C 167.264 147.380,166.749 147.200,166.256 147.200 C 165.763 147.200,165.189 147.053,164.980 146.873 C 164.771 146.693,163.610 146.316,162.400 146.036 C 161.190 145.755,159.660 145.366,159.000 145.172 C 155.865 144.247,152.358 143.600,150.474 143.600 C 149.333 143.600,148.400 143.420,148.400 143.200 C 148.400 142.975,147.275 142.800,145.824 142.800 C 144.407 142.800,143.136 142.620,143.000 142.400 C 142.856 142.167,140.604 142.000,137.600 142.000 C 134.596 142.000,132.344 141.833,132.200 141.600 C 132.058 141.371,129.996 141.200,127.376 141.200 C 124.592 141.200,122.800 141.357,122.800 141.600 M137.000 168.217 C 139.200 168.347,141.171 168.621,141.380 168.827 C 141.589 169.032,142.714 169.200,143.880 169.200 C 145.046 169.200,146.000 169.380,146.000 169.600 C 146.000 169.820,146.799 170.000,147.776 170.000 C 148.753 170.000,149.664 170.180,149.800 170.400 C 149.936 170.620,150.519 170.800,151.095 170.800 C 152.166 170.800,154.449 171.420,155.695 172.049 C 156.077 172.242,156.743 172.400,157.176 172.400 C 157.608 172.400,158.466 172.602,159.081 172.850 C 163.467 174.613,165.197 175.200,166.008 175.200 C 166.444 175.200,166.800 175.380,166.800 175.600 C 166.800 175.820,167.160 176.000,167.600 176.000 C 168.040 176.000,168.400 176.180,168.400 176.400 C 168.400 176.620,168.760 176.800,169.200 176.800 C 169.640 176.800,170.000 176.980,170.000 177.200 C 170.000 177.420,170.234 177.600,170.520 177.600 C 171.256 177.600,173.193 178.541,173.197 178.900 C 173.199 179.065,173.560 179.200,174.000 179.200 C 174.440 179.200,174.800 179.380,174.800 179.600 C 174.800 179.820,175.160 180.000,175.600 180.000 C 176.040 180.000,176.400 180.180,176.400 180.400 C 176.400 180.620,176.625 180.806,176.900 180.813 C 178.025 180.841,178.934 181.922,178.349 182.535 C 177.415 183.514,176.400 184.800,176.400 185.003 C 176.400 185.109,175.500 186.115,174.400 187.239 C 173.300 188.362,172.400 189.461,172.400 189.680 C 172.400 189.899,171.904 190.556,171.298 191.140 C 170.691 191.723,169.746 192.874,169.198 193.697 C 168.649 194.521,168.065 195.196,167.900 195.197 C 167.735 195.199,167.600 195.470,167.600 195.800 C 167.600 196.130,167.450 196.400,167.268 196.400 C 167.085 196.400,166.680 196.895,166.368 197.500 C 166.056 198.105,165.686 198.690,165.546 198.800 C 165.265 199.020,164.065 200.986,162.814 203.277 C 162.370 204.089,161.556 205.419,161.004 206.233 C 160.452 207.046,160.000 208.032,160.000 208.422 C 160.000 208.813,159.863 209.193,159.695 209.267 C 159.527 209.340,158.429 211.380,157.255 213.800 C 156.080 216.220,154.958 218.513,154.760 218.895 C 154.562 219.277,154.400 219.862,154.400 220.195 C 154.400 220.528,154.220 220.800,154.000 220.800 C 153.780 220.800,153.600 221.239,153.600 221.776 C 153.600 222.313,153.420 222.864,153.200 223.000 C 152.980 223.136,152.800 223.597,152.800 224.024 C 152.800 224.451,152.620 224.800,152.400 224.800 C 152.180 224.800,152.000 225.340,152.000 226.000 C 152.000 226.660,151.820 227.200,151.600 227.200 C 151.380 227.200,151.200 227.639,151.200 228.176 C 151.200 228.713,151.020 229.264,150.800 229.400 C 150.580 229.536,150.400 230.076,150.400 230.600 C 150.400 231.124,150.220 231.664,150.000 231.800 C 149.780 231.936,149.600 232.566,149.600 233.200 C 149.600 233.834,149.420 234.464,149.200 234.600 C 148.980 234.736,148.800 235.366,148.800 236.000 C 148.800 236.634,148.639 237.252,148.442 237.374 C 148.245 237.495,147.987 238.271,147.868 239.097 C 147.749 239.924,147.451 241.500,147.205 242.600 C 143.998 256.943,143.688 276.458,146.415 292.200 C 146.644 293.520,146.933 295.320,147.057 296.200 C 147.181 297.080,147.444 297.971,147.641 298.180 C 147.838 298.389,148.000 299.233,148.000 300.056 C 148.000 300.879,148.180 301.664,148.400 301.800 C 148.620 301.936,148.800 302.476,148.800 303.000 C 148.800 303.524,148.980 304.064,149.200 304.200 C 149.420 304.336,149.600 304.966,149.600 305.600 C 149.600 306.234,149.780 306.864,150.000 307.000 C 150.220 307.136,150.400 307.777,150.400 308.424 C 150.400 309.071,150.580 309.600,150.800 309.600 C 151.020 309.600,151.200 310.039,151.200 310.576 C 151.200 311.113,151.380 311.664,151.600 311.800 C 151.820 311.936,152.000 312.476,152.000 313.000 C 152.000 313.524,152.180 314.064,152.400 314.200 C 152.620 314.336,152.800 314.797,152.800 315.224 C 152.800 315.651,152.980 316.000,153.200 316.000 C 153.420 316.000,153.600 316.439,153.600 316.976 C 153.600 317.513,153.780 318.064,154.000 318.200 C 154.220 318.336,154.400 318.797,154.400 319.224 C 154.400 319.651,154.580 320.000,154.800 320.000 C 155.020 320.000,155.200 320.349,155.200 320.776 C 155.200 321.203,155.380 321.664,155.600 321.800 C 155.820 321.936,156.000 322.397,156.000 322.824 C 156.000 323.251,156.180 323.600,156.400 323.600 C 156.620 323.600,156.800 323.960,156.800 324.400 C 156.800 324.840,156.980 325.200,157.200 325.200 C 157.420 325.200,157.600 325.560,157.600 326.000 C 157.600 326.440,157.780 326.800,158.000 326.800 C 158.220 326.800,158.400 327.160,158.400 327.600 C 158.400 328.040,158.580 328.400,158.800 328.400 C 159.020 328.400,159.200 328.760,159.200 329.200 C 159.200 329.640,159.380 330.000,159.600 330.000 C 159.820 330.000,160.000 330.174,160.000 330.386 C 160.000 330.739,161.473 333.470,163.723 337.289 C 164.205 338.108,164.915 339.145,165.300 339.594 C 165.685 340.042,166.000 340.542,166.001 340.705 C 166.001 340.867,166.541 341.630,167.200 342.400 C 167.859 343.170,168.399 343.943,168.399 344.118 C 168.400 344.293,168.850 344.886,169.400 345.436 C 169.950 345.986,170.400 346.602,170.400 346.805 C 170.400 347.008,171.030 347.803,171.800 348.573 C 172.570 349.343,173.200 350.135,173.200 350.333 C 173.200 350.531,174.145 351.688,175.300 352.904 C 178.978 356.777,179.412 357.600,177.776 357.600 C 177.459 357.600,177.200 357.780,177.200 358.000 C 177.200 358.220,176.964 358.400,176.675 358.400 C 176.387 358.400,175.764 358.760,175.292 359.200 C 174.820 359.640,174.227 360.000,173.974 360.000 C 173.721 360.000,172.409 360.519,171.057 361.153 C 169.706 361.787,167.880 362.613,167.000 362.987 C 166.120 363.361,165.087 363.832,164.705 364.034 C 164.323 364.235,163.648 364.400,163.205 364.400 C 162.762 364.400,162.400 364.580,162.400 364.800 C 162.400 365.020,161.961 365.200,161.424 365.200 C 160.887 365.200,160.336 365.380,160.200 365.600 C 160.064 365.820,159.524 366.000,159.000 366.000 C 158.476 366.000,157.936 366.180,157.800 366.400 C 157.664 366.620,157.023 366.800,156.376 366.800 C 155.729 366.800,155.200 366.980,155.200 367.200 C 155.200 367.420,154.581 367.600,153.824 367.600 C 153.067 367.600,152.336 367.780,152.200 368.000 C 152.064 368.220,151.254 368.400,150.400 368.400 C 149.546 368.400,148.736 368.580,148.600 368.800 C 148.464 369.020,147.643 369.200,146.776 369.200 C 145.909 369.200,145.200 369.380,145.200 369.600 C 145.200 369.825,144.075 370.000,142.624 370.000 C 141.207 370.000,139.936 370.180,139.800 370.400 C 139.656 370.633,137.404 370.800,134.400 370.800 C 131.396 370.800,129.144 370.967,129.000 371.200 C 128.864 371.420,128.144 371.600,127.400 371.600 C 126.656 371.600,125.936 371.420,125.800 371.200 C 125.656 370.967,123.404 370.800,120.400 370.800 C 117.396 370.800,115.144 370.633,115.000 370.400 C 114.864 370.180,113.694 370.000,112.400 370.000 C 111.106 370.000,109.936 369.820,109.800 369.600 C 109.664 369.380,108.854 369.200,108.000 369.200 C 107.146 369.200,106.336 369.020,106.200 368.800 C 106.064 368.580,105.254 368.400,104.400 368.400 C 103.546 368.400,102.736 368.220,102.600 368.000 C 102.464 367.780,101.733 367.600,100.976 367.600 C 100.219 367.600,99.600 367.420,99.600 367.200 C 99.600 366.980,99.071 366.800,98.424 366.800 C 97.777 366.800,97.136 366.620,97.000 366.400 C 96.864 366.180,96.324 366.000,95.800 366.000 C 95.276 366.000,94.736 365.820,94.600 365.600 C 94.464 365.380,93.913 365.200,93.376 365.200 C 92.839 365.200,92.400 365.059,92.400 364.887 C 92.400 364.715,91.553 364.325,90.517 364.019 C 89.482 363.713,87.046 362.684,85.104 361.731 C 83.162 360.779,81.354 359.996,81.086 359.991 C 80.819 359.986,80.150 359.630,79.600 359.200 C 79.050 358.770,78.375 358.414,78.100 358.409 C 77.825 358.404,77.600 358.220,77.600 358.000 C 77.600 357.780,77.240 357.600,76.800 357.600 C 76.360 357.600,76.000 357.420,76.000 357.200 C 76.000 356.980,75.730 356.800,75.400 356.800 C 75.070 356.800,74.800 356.620,74.800 356.400 C 74.800 356.180,74.530 356.000,74.200 356.000 C 73.870 356.000,73.600 355.820,73.600 355.600 C 73.600 355.380,73.330 355.200,73.000 355.200 C 72.670 355.200,72.400 355.020,72.400 354.800 C 72.400 354.580,72.130 354.400,71.800 354.400 C 71.470 354.400,71.200 354.220,71.200 354.000 C 71.200 353.780,70.930 353.600,70.600 353.600 C 70.270 353.600,70.000 353.459,70.000 353.286 C 70.000 353.114,69.467 352.657,68.815 352.272 C 68.163 351.887,67.398 351.347,67.115 351.073 C 66.832 350.798,65.970 350.136,65.200 349.600 C 64.430 349.064,63.571 348.404,63.290 348.132 C 63.010 347.860,61.940 346.954,60.913 346.119 C 58.406 344.080,52.472 338.150,51.073 336.284 C 50.453 335.458,49.553 334.379,49.073 333.887 C 48.593 333.395,47.392 331.914,46.403 330.596 C 45.415 329.278,44.290 327.909,43.903 327.553 C 43.517 327.197,43.200 326.652,43.200 326.341 C 43.200 326.031,42.840 325.517,42.400 325.200 C 41.960 324.883,41.600 324.314,41.600 323.935 C 41.600 323.557,41.436 323.146,41.235 323.021 C 41.034 322.897,40.431 321.942,39.896 320.898 C 38.275 317.736,37.011 315.411,36.799 315.200 C 36.689 315.090,36.400 314.550,36.156 314.000 C 35.913 313.450,35.328 312.218,34.857 311.262 C 34.386 310.306,34.000 309.271,34.000 308.962 C 34.000 308.653,33.820 308.400,33.600 308.400 C 33.380 308.400,33.200 307.961,33.200 307.424 C 33.200 306.887,33.020 306.336,32.800 306.200 C 32.580 306.064,32.400 305.603,32.400 305.176 C 32.400 304.749,32.220 304.400,32.000 304.400 C 31.780 304.400,31.600 303.860,31.600 303.200 C 31.600 302.540,31.420 302.000,31.200 302.000 C 30.980 302.000,30.800 301.561,30.800 301.024 C 30.800 300.487,30.620 299.936,30.400 299.800 C 30.180 299.664,30.000 299.034,30.000 298.400 C 30.000 297.766,29.820 297.136,29.600 297.000 C 29.380 296.864,29.200 296.223,29.200 295.576 C 29.200 294.929,29.020 294.400,28.800 294.400 C 28.580 294.400,28.400 293.680,28.400 292.800 C 28.400 291.920,28.220 291.200,28.000 291.200 C 27.780 291.200,27.600 290.300,27.600 289.200 C 27.600 288.100,27.420 287.200,27.200 287.200 C 26.975 287.200,26.800 286.075,26.800 284.624 C 26.800 283.207,26.620 281.936,26.400 281.800 C 26.166 281.655,26.000 279.338,26.000 276.202 C 26.000 273.260,25.824 270.390,25.610 269.826 C 25.356 269.159,25.356 268.800,25.610 268.800 C 25.845 268.800,26.000 266.502,26.000 263.000 C 26.000 259.400,26.152 257.200,26.400 257.200 C 26.625 257.200,26.800 256.075,26.800 254.624 C 26.800 253.207,26.980 251.936,27.200 251.800 C 27.420 251.664,27.600 250.753,27.600 249.776 C 27.600 248.799,27.780 248.000,28.000 248.000 C 28.220 248.000,28.400 247.291,28.400 246.424 C 28.400 245.557,28.580 244.736,28.800 244.600 C 29.020 244.464,29.200 243.733,29.200 242.976 C 29.200 242.219,29.380 241.600,29.600 241.600 C 29.820 241.600,30.000 241.060,30.000 240.400 C 30.000 239.740,30.180 239.200,30.400 239.200 C 30.620 239.200,30.800 238.660,30.800 238.000 C 30.800 237.340,30.980 236.800,31.200 236.800 C 31.420 236.800,31.600 236.361,31.600 235.824 C 31.600 235.287,31.780 234.736,32.000 234.600 C 32.220 234.464,32.400 233.913,32.400 233.376 C 32.400 232.839,32.580 232.400,32.800 232.400 C 33.020 232.400,33.200 232.128,33.200 231.795 C 33.200 231.462,33.380 230.832,33.600 230.395 C 33.820 229.958,34.180 229.242,34.400 228.805 C 34.620 228.368,34.800 227.738,34.800 227.405 C 34.800 227.072,34.980 226.800,35.200 226.800 C 35.420 226.800,35.600 226.440,35.600 226.000 C 35.600 225.560,35.780 225.200,36.000 225.200 C 36.220 225.200,36.400 224.840,36.400 224.400 C 36.400 223.960,36.536 223.600,36.702 223.600 C 36.869 223.600,37.248 223.051,37.544 222.381 C 37.841 221.710,38.875 219.845,39.842 218.236 C 40.809 216.628,41.600 215.107,41.600 214.856 C 41.600 214.605,41.780 214.400,42.000 214.400 C 42.220 214.400,42.400 214.128,42.400 213.796 C 42.400 213.464,42.940 212.628,43.600 211.937 C 44.260 211.246,44.800 210.504,44.800 210.288 C 44.800 210.071,45.115 209.603,45.500 209.247 C 45.885 208.891,46.828 207.789,47.594 206.800 C 49.736 204.037,50.059 203.656,52.138 201.453 C 58.240 194.988,61.693 191.600,62.181 191.600 C 62.485 191.600,62.793 191.448,62.867 191.263 C 62.940 191.077,64.530 189.806,66.400 188.439 C 68.270 187.071,70.117 185.693,70.505 185.376 C 70.892 185.059,71.359 184.800,71.543 184.800 C 71.726 184.800,72.202 184.440,72.600 184.000 C 72.998 183.560,73.566 183.200,73.862 183.200 C 74.158 183.200,74.400 183.020,74.400 182.800 C 74.400 182.580,74.720 182.400,75.112 182.400 C 75.503 182.400,76.083 182.040,76.400 181.600 C 76.717 181.160,77.297 180.800,77.688 180.800 C 78.080 180.800,78.400 180.620,78.400 180.400 C 78.400 180.180,78.760 180.000,79.200 180.000 C 79.640 180.000,80.000 179.820,80.000 179.600 C 80.000 179.380,80.360 179.200,80.800 179.200 C 81.240 179.200,81.600 179.020,81.600 178.800 C 81.600 178.580,81.960 178.400,82.400 178.400 C 82.840 178.400,83.200 178.220,83.200 178.000 C 83.200 177.780,83.560 177.600,84.000 177.600 C 84.440 177.600,84.800 177.420,84.800 177.200 C 84.800 176.980,85.160 176.800,85.600 176.800 C 86.040 176.800,86.400 176.620,86.400 176.400 C 86.400 176.180,86.672 176.000,87.005 176.000 C 87.338 176.000,87.923 175.836,88.305 175.635 C 88.687 175.435,89.900 174.971,91.000 174.604 C 92.100 174.238,93.360 173.794,93.800 173.619 C 94.240 173.443,95.103 173.097,95.719 172.850 C 96.334 172.602,97.269 172.400,97.795 172.400 C 98.322 172.400,98.851 172.241,98.971 172.046 C 99.092 171.851,99.687 171.590,100.295 171.464 C 100.903 171.339,102.300 171.035,103.400 170.789 C 104.500 170.543,106.165 170.247,107.100 170.131 C 108.035 170.014,108.800 169.774,108.800 169.595 C 108.800 169.264,110.820 169.013,117.668 168.494 C 119.796 168.332,121.680 168.056,121.855 167.880 C 122.160 167.573,128.496 167.714,137.000 168.217 M282.200 168.373 C 284.400 168.601,287.325 168.896,288.700 169.029 C 290.075 169.162,291.200 169.417,291.200 169.595 C 291.200 169.774,291.965 170.014,292.900 170.131 C 293.835 170.247,295.500 170.543,296.600 170.789 C 297.700 171.035,299.097 171.339,299.705 171.464 C 300.313 171.590,300.908 171.851,301.029 172.046 C 301.149 172.241,301.678 172.400,302.205 172.400 C 302.731 172.400,303.666 172.602,304.281 172.850 C 304.897 173.097,305.760 173.443,306.200 173.619 C 306.640 173.794,307.900 174.238,309.000 174.604 C 310.100 174.971,311.313 175.435,311.695 175.635 C 312.077 175.836,312.662 176.000,312.995 176.000 C 313.328 176.000,313.600 176.180,313.600 176.400 C 313.600 176.620,313.960 176.800,314.400 176.800 C 314.840 176.800,315.200 176.980,315.200 177.200 C 315.200 177.420,315.560 177.600,316.000 177.600 C 316.440 177.600,316.800 177.780,316.800 178.000 C 316.800 178.220,317.160 178.400,317.600 178.400 C 318.040 178.400,318.400 178.580,318.400 178.800 C 318.400 179.020,318.760 179.200,319.200 179.200 C 319.640 179.200,320.000 179.380,320.000 179.600 C 320.000 179.820,320.360 180.000,320.800 180.000 C 321.240 180.000,321.600 180.180,321.600 180.400 C 321.600 180.620,321.836 180.800,322.125 180.800 C 322.413 180.800,323.036 181.160,323.508 181.600 C 323.980 182.040,324.644 182.400,324.983 182.400 C 325.322 182.400,325.600 182.580,325.600 182.800 C 325.600 183.020,325.836 183.200,326.125 183.200 C 326.413 183.200,327.036 183.560,327.508 184.000 C 327.980 184.440,328.462 184.800,328.579 184.800 C 328.695 184.800,329.108 185.059,329.495 185.376 C 329.883 185.693,331.718 187.066,333.573 188.429 C 335.428 189.791,337.307 191.242,337.749 191.653 C 338.190 192.064,338.707 192.400,338.898 192.400 C 339.262 192.400,341.805 194.937,346.800 200.285 C 349.944 203.651,350.159 203.901,352.406 206.800 C 353.172 207.789,354.115 208.891,354.500 209.247 C 354.885 209.603,355.200 210.053,355.201 210.247 C 355.201 210.441,355.741 211.230,356.400 212.000 C 357.059 212.770,357.599 213.625,357.599 213.900 C 357.600 214.175,357.780 214.400,358.000 214.400 C 358.220 214.400,358.400 214.636,358.400 214.925 C 358.400 215.213,358.760 215.836,359.200 216.308 C 359.640 216.780,360.000 217.345,360.000 217.563 C 360.000 217.781,360.630 219.004,361.399 220.280 C 362.168 221.556,362.798 222.825,362.799 223.100 C 362.800 223.375,362.980 223.600,363.200 223.600 C 363.420 223.600,363.600 223.960,363.600 224.400 C 363.600 224.840,363.780 225.200,364.000 225.200 C 364.220 225.200,364.400 225.560,364.400 226.000 C 364.400 226.440,364.580 226.800,364.800 226.800 C 365.020 226.800,365.200 227.072,365.200 227.405 C 365.200 227.738,365.380 228.368,365.600 228.805 C 365.820 229.242,366.180 229.958,366.400 230.395 C 366.620 230.832,366.800 231.462,366.800 231.795 C 366.800 232.128,366.980 232.400,367.200 232.400 C 367.420 232.400,367.600 232.839,367.600 233.376 C 367.600 233.913,367.780 234.464,368.000 234.600 C 368.220 234.736,368.400 235.287,368.400 235.824 C 368.400 236.361,368.580 236.800,368.800 236.800 C 369.020 236.800,369.200 237.340,369.200 238.000 C 369.200 238.660,369.380 239.200,369.600 239.200 C 369.820 239.200,370.000 239.740,370.000 240.400 C 370.000 241.060,370.180 241.600,370.400 241.600 C 370.620 241.600,370.800 242.219,370.800 242.976 C 370.800 243.733,370.980 244.464,371.200 244.600 C 371.420 244.736,371.600 245.557,371.600 246.424 C 371.600 247.291,371.780 248.000,372.000 248.000 C 372.220 248.000,372.400 248.900,372.400 250.000 C 372.400 251.100,372.580 252.000,372.800 252.000 C 373.026 252.000,373.200 253.133,373.200 254.600 C 373.200 256.067,373.374 257.200,373.600 257.200 C 373.848 257.200,374.000 259.373,374.000 262.920 C 374.000 266.836,374.151 268.791,374.480 269.120 C 374.853 269.493,374.853 269.707,374.480 270.080 C 374.153 270.407,374.000 272.315,374.000 276.056 C 374.000 279.289,373.835 281.655,373.600 281.800 C 373.380 281.936,373.200 283.106,373.200 284.400 C 373.200 285.694,373.020 286.864,372.800 287.000 C 372.580 287.136,372.400 288.137,372.400 289.224 C 372.400 290.311,372.220 291.200,372.000 291.200 C 371.780 291.200,371.600 291.920,371.600 292.800 C 371.600 293.680,371.420 294.400,371.200 294.400 C 370.980 294.400,370.800 294.929,370.800 295.576 C 370.800 296.223,370.620 296.864,370.400 297.000 C 370.180 297.136,370.000 297.766,370.000 298.400 C 370.000 299.034,369.820 299.664,369.600 299.800 C 369.380 299.936,369.200 300.487,369.200 301.024 C 369.200 301.561,369.020 302.000,368.800 302.000 C 368.580 302.000,368.400 302.540,368.400 303.200 C 368.400 303.860,368.220 304.400,368.000 304.400 C 367.780 304.400,367.600 304.749,367.600 305.176 C 367.600 305.603,367.420 306.064,367.200 306.200 C 366.980 306.336,366.800 306.887,366.800 307.424 C 366.800 307.961,366.620 308.400,366.400 308.400 C 366.180 308.400,366.000 308.642,366.000 308.939 C 366.000 309.235,365.750 310.000,365.444 310.639 C 365.138 311.277,364.558 312.520,364.157 313.400 C 363.755 314.280,362.655 316.376,361.713 318.058 C 360.771 319.739,360.000 321.365,360.000 321.669 C 360.000 321.974,359.640 322.483,359.200 322.800 C 358.760 323.117,358.400 323.657,358.400 324.000 C 358.400 324.343,358.040 324.883,357.600 325.200 C 357.160 325.517,356.800 326.031,356.800 326.341 C 356.800 326.652,356.483 327.197,356.097 327.553 C 355.710 327.909,354.585 329.278,353.597 330.596 C 352.608 331.914,351.407 333.395,350.927 333.887 C 350.447 334.379,349.547 335.458,348.927 336.285 C 348.307 337.112,347.260 338.350,346.600 339.037 C 345.940 339.723,344.650 341.076,343.733 342.042 C 342.816 343.009,341.824 343.980,341.529 344.200 C 340.452 345.002,337.206 347.650,336.710 348.132 C 336.429 348.404,335.570 349.064,334.800 349.600 C 334.030 350.136,333.168 350.798,332.885 351.073 C 332.602 351.347,331.837 351.887,331.185 352.272 C 330.533 352.657,330.000 353.114,330.000 353.286 C 330.000 353.459,329.730 353.600,329.400 353.600 C 329.070 353.600,328.800 353.750,328.800 353.932 C 328.800 354.115,328.305 354.520,327.700 354.832 C 327.095 355.145,326.251 355.715,325.825 356.100 C 325.398 356.485,324.813 356.800,324.525 356.800 C 324.236 356.800,324.000 356.980,324.000 357.200 C 324.000 357.420,323.640 357.600,323.200 357.600 C 322.760 357.600,322.400 357.759,322.400 357.953 C 322.400 358.148,322.085 358.407,321.700 358.529 C 321.315 358.651,320.550 359.005,320.000 359.316 C 319.450 359.627,318.370 360.170,317.600 360.522 C 316.830 360.874,315.098 361.684,313.752 362.322 C 312.405 362.959,310.470 363.727,309.452 364.028 C 308.433 364.329,307.600 364.715,307.600 364.887 C 307.600 365.059,307.161 365.200,306.624 365.200 C 306.087 365.200,305.536 365.380,305.400 365.600 C 305.264 365.820,304.724 366.000,304.200 366.000 C 303.676 366.000,303.136 366.180,303.000 366.400 C 302.864 366.620,302.234 366.800,301.600 366.800 C 300.966 366.800,300.336 366.980,300.200 367.200 C 300.064 367.420,299.434 367.600,298.800 367.600 C 298.166 367.600,297.536 367.780,297.400 368.000 C 297.264 368.220,296.454 368.400,295.600 368.400 C 294.746 368.400,293.936 368.580,293.800 368.800 C 293.664 369.020,292.854 369.200,292.000 369.200 C 291.146 369.200,290.336 369.380,290.200 369.600 C 290.064 369.820,288.894 370.000,287.600 370.000 C 286.306 370.000,285.136 370.180,285.000 370.400 C 284.856 370.633,282.604 370.800,279.600 370.800 C 276.596 370.800,274.344 370.967,274.200 371.200 C 274.064 371.420,273.344 371.600,272.600 371.600 C 271.856 371.600,271.136 371.420,271.000 371.200 C 270.856 370.967,268.604 370.800,265.600 370.800 C 262.596 370.800,260.344 370.633,260.200 370.400 C 260.064 370.180,258.894 370.000,257.600 370.000 C 256.306 370.000,255.136 369.820,255.000 369.600 C 254.864 369.380,254.054 369.200,253.200 369.200 C 252.346 369.200,251.536 369.020,251.400 368.800 C 251.264 368.580,250.454 368.400,249.600 368.400 C 248.746 368.400,247.936 368.220,247.800 368.000 C 247.664 367.780,246.933 367.600,246.176 367.600 C 245.419 367.600,244.800 367.420,244.800 367.200 C 244.800 366.980,244.271 366.800,243.624 366.800 C 242.977 366.800,242.336 366.620,242.200 366.400 C 242.064 366.180,241.601 366.000,241.171 366.000 C 240.741 366.000,240.032 365.820,239.595 365.600 C 239.158 365.380,238.442 365.020,238.005 364.800 C 237.568 364.580,236.884 364.400,236.485 364.400 C 236.086 364.400,235.589 364.249,235.380 364.064 C 235.171 363.879,234.370 363.489,233.600 363.198 C 232.830 362.906,230.912 362.067,229.338 361.333 C 227.765 360.600,226.190 360.000,225.838 360.000 C 225.487 360.000,225.200 359.820,225.200 359.600 C 225.200 359.380,224.930 359.200,224.600 359.200 C 224.270 359.200,224.000 359.020,224.000 358.800 C 224.000 358.580,223.730 358.400,223.400 358.400 C 223.070 358.400,222.800 358.220,222.800 358.000 C 222.800 357.780,222.530 357.600,222.200 357.600 C 220.807 357.600,221.425 356.623,226.100 351.427 C 226.485 350.999,226.800 350.503,226.800 350.325 C 226.800 350.147,227.520 349.259,228.400 348.352 C 229.280 347.445,230.000 346.495,230.000 346.240 C 230.000 345.985,230.360 345.517,230.800 345.200 C 231.240 344.883,231.600 344.391,231.600 344.108 C 231.600 343.825,232.140 343.028,232.800 342.337 C 233.460 341.646,234.000 340.838,234.000 340.541 C 234.000 340.243,234.180 340.000,234.400 340.000 C 234.620 340.000,234.800 339.812,234.800 339.583 C 234.800 339.354,235.160 338.780,235.600 338.308 C 236.040 337.836,236.400 337.213,236.400 336.925 C 236.400 336.636,236.535 336.400,236.701 336.400 C 236.866 336.400,237.447 335.545,237.991 334.500 C 238.535 333.455,239.076 332.510,239.193 332.400 C 239.714 331.911,241.600 328.028,241.600 327.446 C 241.600 327.091,241.780 326.800,242.000 326.800 C 242.220 326.800,242.400 326.440,242.400 326.000 C 242.400 325.560,242.580 325.200,242.800 325.200 C 243.020 325.200,243.200 324.851,243.200 324.424 C 243.200 323.997,243.380 323.536,243.600 323.400 C 243.820 323.264,244.000 322.803,244.000 322.376 C 244.000 321.949,244.180 321.600,244.400 321.600 C 244.620 321.600,244.800 321.240,244.800 320.800 C 244.800 320.360,244.980 320.000,245.200 320.000 C 245.420 320.000,245.600 319.651,245.600 319.224 C 245.600 318.797,245.780 318.336,246.000 318.200 C 246.220 318.064,246.400 317.513,246.400 316.976 C 246.400 316.439,246.580 316.000,246.800 316.000 C 247.020 316.000,247.200 315.651,247.200 315.224 C 247.200 314.797,247.380 314.336,247.600 314.200 C 247.820 314.064,248.000 313.524,248.000 313.000 C 248.000 312.476,248.180 311.936,248.400 311.800 C 248.620 311.664,248.800 311.113,248.800 310.576 C 248.800 310.039,248.980 309.600,249.200 309.600 C 249.420 309.600,249.600 309.071,249.600 308.424 C 249.600 307.777,249.780 307.136,250.000 307.000 C 250.220 306.864,250.400 306.234,250.400 305.600 C 250.400 304.966,250.580 304.336,250.800 304.200 C 251.020 304.064,251.200 303.524,251.200 303.000 C 251.200 302.476,251.380 301.936,251.600 301.800 C 251.820 301.664,252.000 300.854,252.000 300.000 C 252.000 299.146,252.180 298.336,252.400 298.200 C 252.620 298.064,252.800 297.279,252.800 296.456 C 252.800 295.633,252.963 294.789,253.163 294.580 C 253.363 294.371,253.628 293.300,253.752 292.200 C 253.876 291.100,254.168 288.850,254.401 287.200 C 255.981 275.988,255.980 262.758,254.398 251.600 C 254.164 249.950,253.872 247.655,253.750 246.500 C 253.627 245.345,253.381 244.400,253.203 244.400 C 253.026 244.400,252.778 243.635,252.653 242.700 C 252.106 238.611,251.894 237.582,251.558 237.374 C 251.361 237.252,251.200 236.634,251.200 236.000 C 251.200 235.366,251.020 234.736,250.800 234.600 C 250.580 234.464,250.400 233.834,250.400 233.200 C 250.400 232.566,250.220 231.936,250.000 231.800 C 249.780 231.664,249.600 231.124,249.600 230.600 C 249.600 230.076,249.420 229.536,249.200 229.400 C 248.980 229.264,248.800 228.713,248.800 228.176 C 248.800 227.639,248.620 227.200,248.400 227.200 C 248.180 227.200,248.000 226.660,248.000 226.000 C 248.000 225.340,247.820 224.800,247.600 224.800 C 247.380 224.800,247.200 224.451,247.200 224.024 C 247.200 223.597,247.020 223.136,246.800 223.000 C 246.580 222.864,246.400 222.313,246.400 221.776 C 246.400 221.239,246.220 220.800,246.000 220.800 C 245.780 220.800,245.600 220.528,245.600 220.195 C 245.600 219.862,245.436 219.277,245.236 218.895 C 245.036 218.513,243.479 215.320,241.777 211.800 C 240.074 208.280,238.568 205.310,238.430 205.200 C 238.293 205.090,237.735 204.145,237.191 203.100 C 236.647 202.055,236.066 201.200,235.901 201.200 C 235.735 201.200,235.600 200.964,235.600 200.675 C 235.600 200.387,235.285 199.802,234.900 199.375 C 234.515 198.949,233.945 198.105,233.632 197.500 C 233.320 196.895,232.915 196.400,232.732 196.400 C 232.550 196.400,232.400 196.210,232.400 195.978 C 232.400 195.746,231.861 194.981,231.202 194.278 C 230.543 193.575,230.003 192.847,230.002 192.660 C 230.001 192.474,229.460 191.817,228.800 191.200 C 228.140 190.583,227.600 189.908,227.600 189.699 C 227.600 189.490,227.105 188.795,226.500 188.156 C 225.895 187.517,224.452 185.796,223.294 184.333 L 221.189 181.672 222.394 181.138 C 223.057 180.845,223.600 180.469,223.600 180.302 C 223.600 180.136,223.960 180.000,224.400 180.000 C 224.840 180.000,225.200 179.820,225.200 179.600 C 225.200 179.380,225.560 179.200,226.000 179.200 C 226.440 179.200,226.800 179.020,226.800 178.800 C 226.800 178.580,227.160 178.400,227.600 178.400 C 228.040 178.400,228.400 178.220,228.400 178.000 C 228.400 177.780,228.760 177.600,229.200 177.600 C 229.640 177.600,230.000 177.420,230.000 177.200 C 230.000 176.980,230.360 176.800,230.800 176.800 C 231.240 176.800,231.600 176.620,231.600 176.400 C 231.600 176.180,231.960 176.000,232.400 176.000 C 232.840 176.000,233.200 175.820,233.200 175.600 C 233.200 175.380,233.532 175.200,233.938 175.200 C 234.345 175.200,236.190 174.635,238.038 173.945 C 239.887 173.255,241.985 172.605,242.700 172.501 C 243.415 172.397,244.000 172.172,244.000 172.000 C 244.000 171.705,244.988 171.473,248.503 170.942 C 249.329 170.818,250.105 170.555,250.226 170.358 C 250.348 170.161,251.247 170.000,252.224 170.000 C 253.201 170.000,254.000 169.820,254.000 169.600 C 254.000 169.380,254.979 169.200,256.176 169.200 C 257.373 169.200,258.464 169.020,258.600 168.800 C 258.736 168.580,260.502 168.397,262.524 168.394 C 264.546 168.391,266.470 168.208,266.800 167.988 C 267.492 167.528,276.126 167.744,282.200 168.373 M202.906 201.700 C 206.928 206.066,208.380 207.766,208.391 208.118 C 208.396 208.293,208.805 208.860,209.300 209.378 C 209.795 209.896,210.740 211.253,211.400 212.393 C 212.060 213.534,212.825 214.709,213.100 215.005 C 213.375 215.301,213.600 215.658,213.600 215.799 C 213.600 215.940,214.111 216.808,214.735 217.728 C 215.359 218.648,216.123 219.985,216.432 220.700 C 216.742 221.415,217.131 222.000,217.298 222.000 C 217.464 222.000,217.600 222.360,217.600 222.800 C 217.600 223.240,217.735 223.601,217.900 223.603 C 218.259 223.607,219.200 225.544,219.200 226.280 C 219.200 226.566,219.380 226.800,219.600 226.800 C 219.820 226.800,220.000 227.160,220.000 227.600 C 220.000 228.040,220.180 228.400,220.400 228.400 C 220.620 228.400,220.800 228.760,220.800 229.200 C 220.800 229.640,220.980 230.000,221.200 230.000 C 221.420 230.000,221.600 230.439,221.600 230.976 C 221.600 231.513,221.780 232.064,222.000 232.200 C 222.220 232.336,222.400 232.797,222.400 233.224 C 222.400 233.651,222.580 234.000,222.800 234.000 C 223.020 234.000,223.200 234.540,223.200 235.200 C 223.200 235.860,223.380 236.400,223.600 236.400 C 223.820 236.400,224.000 236.940,224.000 237.600 C 224.000 238.260,224.180 238.800,224.400 238.800 C 224.620 238.800,224.800 239.329,224.800 239.976 C 224.800 240.623,224.980 241.264,225.200 241.400 C 225.420 241.536,225.600 242.177,225.600 242.824 C 225.600 243.471,225.780 244.000,226.000 244.000 C 226.220 244.000,226.400 244.720,226.400 245.600 C 226.400 246.480,226.542 247.200,226.715 247.200 C 227.008 247.200,227.443 250.228,228.498 259.600 C 229.060 264.598,229.059 274.390,228.496 279.400 C 227.416 289.004,227.040 291.600,226.730 291.600 C 226.549 291.600,226.400 292.309,226.400 293.176 C 226.400 294.043,226.220 294.864,226.000 295.000 C 225.780 295.136,225.600 295.777,225.600 296.424 C 225.600 297.071,225.420 297.600,225.200 297.600 C 224.980 297.600,224.800 298.129,224.800 298.776 C 224.800 299.423,224.620 300.064,224.400 300.200 C 224.180 300.336,224.000 300.887,224.000 301.424 C 224.000 301.961,223.820 302.400,223.600 302.400 C 223.380 302.400,223.200 302.839,223.200 303.376 C 223.200 303.913,223.020 304.464,222.800 304.600 C 222.580 304.736,222.400 305.287,222.400 305.824 C 222.400 306.361,222.220 306.800,222.000 306.800 C 221.780 306.800,221.600 307.072,221.600 307.405 C 221.600 307.738,221.420 308.368,221.200 308.805 C 220.980 309.242,220.620 309.958,220.400 310.395 C 220.180 310.832,220.000 311.462,220.000 311.795 C 220.000 312.128,219.865 312.401,219.700 312.401 C 219.535 312.402,218.950 313.392,218.400 314.600 C 217.850 315.808,217.265 316.798,217.100 316.799 C 216.935 316.799,216.800 317.160,216.800 317.600 C 216.800 318.040,216.641 318.400,216.447 318.400 C 216.252 318.400,215.993 318.715,215.871 319.100 C 215.654 319.785,214.396 322.004,214.000 322.400 C 213.890 322.510,213.456 323.230,213.035 324.000 C 212.614 324.770,211.759 326.056,211.135 326.858 C 210.511 327.659,210.000 328.422,210.000 328.553 C 210.000 328.788,209.069 329.995,208.100 331.016 C 207.825 331.306,207.600 331.654,207.600 331.790 C 207.600 331.925,207.195 332.447,206.700 332.949 C 206.205 333.451,205.350 334.462,204.800 335.197 C 204.250 335.931,202.949 337.410,201.909 338.483 L 200.018 340.435 197.809 338.226 C 196.594 337.011,195.600 335.926,195.600 335.813 C 195.600 335.566,194.524 334.235,193.300 332.968 C 192.805 332.456,192.400 331.848,192.400 331.618 C 192.400 331.388,192.265 331.200,192.100 331.199 C 191.935 331.199,191.268 330.344,190.617 329.299 C 189.967 328.255,189.157 327.128,188.817 326.796 C 188.478 326.463,187.975 325.788,187.700 325.296 C 187.425 324.803,186.975 323.995,186.700 323.500 C 186.425 323.005,186.110 322.510,186.000 322.400 C 185.604 322.004,184.346 319.785,184.129 319.100 C 184.007 318.715,183.748 318.400,183.553 318.400 C 183.359 318.400,183.200 318.040,183.200 317.600 C 183.200 317.160,183.065 316.799,182.900 316.799 C 182.735 316.798,182.150 315.808,181.600 314.600 C 181.050 313.392,180.465 312.402,180.300 312.401 C 180.135 312.401,180.000 312.135,180.000 311.812 C 180.000 311.489,179.640 310.583,179.200 309.800 C 178.760 309.017,178.400 308.021,178.400 307.588 C 178.400 307.155,178.220 306.800,178.000 306.800 C 177.780 306.800,177.600 306.438,177.600 305.995 C 177.600 305.552,177.420 304.832,177.200 304.395 C 176.980 303.958,176.620 303.242,176.400 302.805 C 176.180 302.368,176.000 301.648,176.000 301.205 C 176.000 300.762,175.820 300.400,175.600 300.400 C 175.380 300.400,175.200 299.904,175.200 299.297 C 175.200 298.691,175.002 297.566,174.759 296.797 C 174.517 296.029,174.157 294.635,173.959 293.700 C 173.762 292.765,173.406 291.145,173.168 290.100 C 172.931 289.055,172.652 287.300,172.549 286.200 C 172.446 285.100,172.195 283.840,171.993 283.400 C 170.881 280.988,170.874 257.865,171.984 255.400 C 172.182 254.960,172.442 253.700,172.562 252.600 C 172.782 250.572,173.194 248.457,174.004 245.200 C 174.250 244.210,174.664 242.379,174.925 241.132 C 175.186 239.885,175.535 238.730,175.700 238.565 C 175.865 238.401,176.000 237.847,176.000 237.333 C 176.000 236.820,176.180 236.400,176.400 236.400 C 176.620 236.400,176.800 235.860,176.800 235.200 C 176.800 234.540,176.980 234.000,177.200 234.000 C 177.420 234.000,177.600 233.640,177.600 233.200 C 177.600 232.760,177.780 232.400,178.000 232.400 C 178.220 232.400,178.400 231.860,178.400 231.200 C 178.400 230.540,178.580 230.000,178.800 230.000 C 179.020 230.000,179.200 229.640,179.200 229.200 C 179.200 228.760,179.380 228.400,179.600 228.400 C 179.820 228.400,180.000 228.040,180.000 227.600 C 180.000 227.160,180.180 226.800,180.400 226.800 C 180.620 226.800,180.800 226.566,180.800 226.280 C 180.800 225.544,181.741 223.607,182.100 223.603 C 182.265 223.601,182.400 223.240,182.400 222.800 C 182.400 222.360,182.536 222.000,182.702 222.000 C 182.869 222.000,183.259 221.415,183.570 220.700 C 183.881 219.985,184.240 219.310,184.368 219.200 C 184.754 218.867,186.034 216.647,186.271 215.900 C 186.393 215.515,186.630 215.200,186.798 215.200 C 186.966 215.200,187.327 214.660,187.600 214.000 C 187.873 213.340,188.233 212.800,188.400 212.800 C 188.567 212.800,188.927 212.260,189.200 211.600 C 189.473 210.940,189.843 210.400,190.022 210.400 C 190.200 210.400,190.447 210.085,190.571 209.700 C 190.694 209.315,191.266 208.460,191.842 207.800 C 192.418 207.140,193.364 205.980,193.945 205.223 C 195.234 203.540,199.716 198.800,200.018 198.800 C 200.138 198.800,201.438 200.105,202.906 201.700 " stroke="none" fill="#c59c54" fill-rule="evenodd"></path><path id="path4" d="" stroke="none" fill="#ffff00" fill-rule="evenodd"></path></g></svg>